<?xml version="1.0" encoding="iso-8859-1"?>
<!-- Generator: Adobe Illustrator 19.0.0, SVG Export Plug-In . SVG Version: 6.00 Build 0)  -->
<svg version="1.1" id="Capa_1" xmlns="http://www.w3.org/2000/svg" xmlns:xlink="http://www.w3.org/1999/xlink" x="0px" y="0px"
	 viewBox="0 0 511.999 511.999" style="enable-background:new 0 0 511.999 511.999;" xml:space="preserve">
<polygon style="fill:#FFFB85;" points="502.153,472.615 9.846,472.615 255.999,39.384 "/>
<g>
	<path style="fill:#FFD464;" d="M263.384,334.769h-14.769c-6.798,0-12.308-5.51-12.308-12.308V216.615
		c0-10.876,8.816-19.692,19.692-19.692l0,0c10.876,0,19.692,8.816,19.692,19.692v105.846
		C275.692,329.258,270.181,334.769,263.384,334.769z"/>
	<circle style="fill:#FFD464;" cx="255.999" cy="393.846" r="19.692"/>
</g>
<path d="M510.713,467.75L264.56,34.519c-1.75-3.079-5.019-4.981-8.56-4.981c-3.542,0-6.811,1.903-8.56,4.982L1.285,467.751
	c-1.732,3.048-1.712,6.788,0.051,9.818c1.761,3.029,5.003,4.893,8.509,4.893h492.308c3.506,0,6.748-1.864,8.51-4.894
	C512.426,474.538,512.445,470.798,510.713,467.75z M26.764,462.769l11.189-19.692h40.815c5.437,0,9.846-4.409,9.846-9.846
	s-4.409-9.846-9.846-9.846H49.143L255.999,59.315l229.234,403.454H26.764z"/>
<path d="M117.394,429.468c-0.246-0.601-0.551-1.171-0.906-1.702c-0.353-0.543-0.767-1.045-1.221-1.498
	c-2.283-2.294-5.69-3.338-8.881-2.698c-0.63,0.128-1.25,0.325-1.841,0.571c-0.601,0.246-1.171,0.552-1.702,0.906
	c-0.543,0.354-1.045,0.768-1.498,1.221c-0.453,0.453-0.866,0.955-1.231,1.498c-0.354,0.532-0.65,1.102-0.896,1.702
	c-0.246,0.591-0.443,1.211-0.56,1.841c-0.129,0.63-0.197,1.28-0.197,1.92c0,2.59,1.053,5.13,2.885,6.96
	c0.453,0.453,0.955,0.867,1.498,1.221c0.532,0.354,1.102,0.66,1.702,0.906c0.592,0.246,1.211,0.443,1.841,0.561
	c0.63,0.128,1.28,0.197,1.92,0.197c2.59,0,5.13-1.054,6.96-2.886c0.454-0.453,0.867-0.955,1.221-1.497
	c0.354-0.532,0.66-1.103,0.906-1.694c0.246-0.601,0.443-1.221,0.561-1.851c0.128-0.631,0.197-1.281,0.197-1.92
	c0-0.64-0.069-1.291-0.197-1.92C117.837,430.68,117.64,430.059,117.394,429.468z"/>
<path d="M226.461,216.615v105.846c0,12.215,9.939,22.154,22.154,22.154h14.769c12.215,0,22.154-9.939,22.154-22.154V216.615
	c0-16.288-13.251-29.538-29.538-29.538S226.461,200.327,226.461,216.615z M265.846,216.615v105.846c0,1.358-1.104,2.462-2.462,2.462
	h-14.769c-1.358,0-2.462-1.104-2.462-2.462V216.615c0-5.429,4.417-9.846,9.846-9.846
	C261.428,206.769,265.846,211.186,265.846,216.615z"/>
<path d="M255.999,364.307c-16.287,0-29.538,13.251-29.538,29.538s13.251,29.538,29.538,29.538s29.538-13.251,29.538-29.538
	S272.287,364.307,255.999,364.307z M255.999,403.692c-5.429,0-9.846-4.417-9.846-9.846s4.417-9.846,9.846-9.846
	s9.846,4.417,9.846,9.846S261.428,403.692,255.999,403.692z"/>
<g>
</g>
<g>
</g>
<g>
</g>
<g>
</g>
<g>
</g>
<g>
</g>
<g>
</g>
<g>
</g>
<g>
</g>
<g>
</g>
<g>
</g>
<g>
</g>
<g>
</g>
<g>
</g>
<g>
</g>
</svg>
